<svg aria-hidden="true" style="position: absolute; width: 0; height: 0; overflow: hidden;" version="1.1" xmlns="http://www.w3.org/2000/svg" xmlns:xlink="http://www.w3.org/1999/xlink">
<defs>
<symbol id="icon-up" viewBox="0 0 17 32">
<path fill="#f6f5ef" style="fill: var(--color1, #f6f5ef)" d="M0 9.771l8.533-9.771 8.533 9.771h-7.061v22.229h-2.955v-22.229h-7.051z"></path>
</symbol>
<symbol id="icon-facebook" viewBox="0 0 32 32">
<path fill="#f6f5ef" style="fill: var(--color1, #f6f5ef)" d="M18.552 10.52h1.448v-2.416c-0.704-0.072-1.408-0.112-2.112-0.104-2.096 0-3.528 1.256-3.528 3.568v1.992h-2.36v2.704h2.36v6.936h2.832v-6.936h2.36l0.352-2.704h-2.712v-1.728c0-0.8 0.216-1.312 1.36-1.312z"></path>
<path fill="none" stroke="#f6f5ef" style="stroke: var(--color1, #f6f5ef)" stroke-linejoin="miter" stroke-linecap="butt" stroke-miterlimit="4" stroke-width="0.8" d="M4.8 0.4h22.4c2.43 0 4.4 1.97 4.4 4.4v22.4c0 2.43-1.97 4.4-4.4 4.4h-22.4c-2.43 0-4.4-1.97-4.4-4.4v-22.4c0-2.43 1.97-4.4 4.4-4.4z"></path>
</symbol>
<symbol id="icon-instagram" viewBox="0 0 32 32">
<path fill="#f6f5ef" style="fill: var(--color1, #f6f5ef)" d="M19.84 11.288c-0.168 0-0.336 0.048-0.48 0.144s-0.256 0.232-0.32 0.392c-0.064 0.152-0.080 0.328-0.048 0.496s0.12 0.32 0.24 0.44c0.12 0.12 0.272 0.208 0.44 0.24s0.344 0.016 0.496-0.048c0.16-0.072 0.296-0.176 0.392-0.32s0.144-0.312 0.144-0.48c0-0.232-0.088-0.448-0.256-0.608-0.16-0.168-0.376-0.256-0.608-0.256zM23.152 13.032c-0.016-0.6-0.128-1.192-0.328-1.752-0.184-0.48-0.472-0.912-0.84-1.272-0.352-0.368-0.792-0.656-1.272-0.832-0.56-0.208-1.152-0.328-1.752-0.336-0.76-0.040-1.008-0.040-2.96-0.040-1.96 0-2.208 0-2.968 0.040-0.6 0.008-1.192 0.128-1.752 0.336-0.48 0.176-0.92 0.464-1.272 0.832-0.368 0.352-0.656 0.792-0.832 1.272-0.208 0.56-0.328 1.152-0.336 1.752-0.040 0.76-0.040 1.008-0.040 2.968 0 1.952 0 2.2 0.040 2.96 0.008 0.6 0.128 1.192 0.336 1.752 0.176 0.48 0.464 0.92 0.832 1.272 0.352 0.368 0.792 0.656 1.272 0.832 0.56 0.208 1.152 0.328 1.752 0.336 0.76 0.048 1.008 0.048 2.968 0.048 1.952 0 2.2 0 2.96-0.048 0.6-0.008 1.192-0.128 1.752-0.336 0.48-0.176 0.92-0.464 1.272-0.832 0.368-0.352 0.656-0.792 0.84-1.272 0.2-0.56 0.312-1.152 0.328-1.752 0-0.76 0.048-1.008 0.048-2.96 0-1.96 0-2.208-0.048-2.968zM21.856 18.88c-0.008 0.456-0.088 0.904-0.24 1.336-0.12 0.312-0.304 0.592-0.544 0.824-0.232 0.24-0.512 0.424-0.824 0.544-0.432 0.16-0.888 0.24-1.344 0.248-0.72 0.032-0.984 0.040-2.88 0.040s-2.16 0-2.88-0.040c-0.472 0.008-0.944-0.064-1.4-0.216-0.296-0.128-0.56-0.312-0.784-0.544-0.24-0.232-0.424-0.512-0.536-0.824-0.176-0.44-0.272-0.904-0.288-1.368 0-0.72-0.040-0.992-0.040-2.88 0-1.896 0-2.168 0.040-2.888 0-0.464 0.088-0.928 0.248-1.368 0.128-0.296 0.328-0.568 0.576-0.784 0.216-0.248 0.488-0.448 0.784-0.576 0.44-0.16 0.904-0.248 1.376-0.248 0.712 0 0.984-0.040 2.88-0.040 1.888 0 2.16 0 2.88 0.040 0.456 0.008 0.904 0.088 1.336 0.248 0.328 0.12 0.624 0.312 0.856 0.576 0.232 0.216 0.424 0.488 0.544 0.784 0.16 0.44 0.24 0.904 0.24 1.368 0.040 0.72 0.048 0.992 0.048 2.888 0 1.888-0.008 2.16-0.048 2.88zM16 12.304c-0.736 0-1.448 0.216-2.056 0.624s-1.080 0.984-1.352 1.656c-0.28 0.68-0.352 1.424-0.208 2.136 0.144 0.72 0.496 1.376 1.008 1.888 0.52 0.52 1.176 0.872 1.896 1.008 0.712 0.144 1.456 0.072 2.128-0.208 0.68-0.28 1.256-0.752 1.656-1.36 0.408-0.608 0.624-1.32 0.624-2.048 0-0.488-0.096-0.968-0.28-1.424-0.184-0.448-0.456-0.856-0.8-1.2-0.344-0.336-0.752-0.608-1.2-0.8-0.456-0.184-0.936-0.272-1.416-0.272zM16 18.392c-0.48 0-0.944-0.136-1.336-0.4s-0.704-0.64-0.88-1.080c-0.184-0.44-0.232-0.92-0.136-1.384 0.088-0.464 0.32-0.896 0.656-1.224 0.328-0.336 0.76-0.568 1.224-0.656 0.464-0.096 0.944-0.048 1.384 0.136 0.44 0.176 0.816 0.488 1.080 0.88s0.4 0.856 0.4 1.336c0 0.312-0.064 0.624-0.184 0.912-0.12 0.296-0.296 0.56-0.52 0.776-0.216 0.224-0.48 0.4-0.776 0.52-0.288 0.12-0.6 0.184-0.912 0.184z"></path>
<path fill="none" stroke="#f6f5ef" style="stroke: var(--color1, #f6f5ef)" stroke-linejoin="miter" stroke-linecap="butt" stroke-miterlimit="4" stroke-width="0.8" d="M4.8 0.4h22.4c2.43 0 4.4 1.97 4.4 4.4v22.4c0 2.43-1.97 4.4-4.4 4.4h-22.4c-2.43 0-4.4-1.97-4.4-4.4v-22.4c0-2.43 1.97-4.4 4.4-4.4z"></path>
</symbol>
<symbol id="icon-youtube" viewBox="0 0 32 32">
<path fill="#f6f5ef" style="fill: var(--color1, #f6f5ef)" d="M20.12 11c-0.68-0.048-2.080-0.088-4.2-0.088h-0.288c-2.032 0-3.392 0.040-4.072 0.12-0.92 0.080-1.56 0.32-1.92 0.648-0.32 0.272-0.56 0.8-0.64 1.472-0.040 0.448-0.080 1.36-0.080 2.76v0.2c0 1.32 0.040 2.24 0.12 2.688 0.12 0.632 0.32 1.112 0.72 1.4 0.4 0.312 1.080 0.512 2.040 0.6 0.68 0.032 2.080 0.080 4.2 0.080h0.28c2.040 0 3.4-0.048 4.080-0.128 0.92-0.072 1.56-0.32 1.92-0.64 0.32-0.28 0.56-0.8 0.64-1.48 0.040-0.432 0.080-1.352 0.080-2.752v-0.2c0-1.328-0.040-2.248-0.12-2.68-0.12-0.648-0.32-1.12-0.72-1.4-0.4-0.32-1.080-0.52-2.040-0.6zM18.56 15.912l-4.4 2.64v-5.272l4.4 2.632z"></path>
<path fill="none" stroke="#f6f5ef" style="stroke: var(--color1, #f6f5ef)" stroke-linejoin="miter" stroke-linecap="butt" stroke-miterlimit="4" stroke-width="0.8" d="M4.8 0.4h22.4c2.43 0 4.4 1.97 4.4 4.4v22.4c0 2.43-1.97 4.4-4.4 4.4h-22.4c-2.43 0-4.4-1.97-4.4-4.4v-22.4c0-2.43 1.97-4.4 4.4-4.4z"></path>
</symbol>
</defs>
</svg>
